<svg width="1600" height="1100" viewBox="0 0 1600 1100" fill="none" xmlns="http://www.w3.org/2000/svg">
  <defs>
    <linearGradient id="bg" x1="0" y1="0" x2="1600" y2="1100" gradientUnits="userSpaceOnUse">
      <stop stop-color="#F6F8FC"/>
      <stop offset="1" stop-color="#EEF2F8"/>
    </linearGradient>
  </defs>

  <rect width="1600" height="1100" fill="url(#bg)"/>
  <rect x="70" y="70" width="1460" height="960" rx="24" fill="#FFFFFF"/>

  <rect x="70" y="70" width="250" height="960" rx="24" fill="#101826"/>
  <text x="110" y="130" fill="#FFFFFF" font-size="28" font-family="Helvetica, Arial, sans-serif" font-weight="700">TaskFlow</text>
  <text x="110" y="190" fill="#8FA3BF" font-size="16" font-family="Helvetica, Arial, sans-serif">Dashboard</text>
  <text x="110" y="228" fill="#8FA3BF" font-size="16" font-family="Helvetica, Arial, sans-serif">My Tasks</text>
  <text x="110" y="266" fill="#8FA3BF" font-size="16" font-family="Helvetica, Arial, sans-serif">Board</text>
  <rect x="96" y="284" width="196" height="46" rx="12" fill="#1E293B"/>
  <text x="120" y="314" fill="#DCE6F5" font-size="16" font-family="Helvetica, Arial, sans-serif">Calendar</text>
  <text x="110" y="366" fill="#8FA3BF" font-size="16" font-family="Helvetica, Arial, sans-serif">Reports</text>
  <text x="110" y="404" fill="#8FA3BF" font-size="16" font-family="Helvetica, Arial, sans-serif">Automations</text>

  <rect x="320" y="70" width="1210" height="90" rx="24" fill="#FFFFFF"/>
  <text x="370" y="124" fill="#0F172A" font-size="28" font-family="Helvetica, Arial, sans-serif" font-weight="700">Календарь задач</text>

  <rect x="1040" y="96" width="150" height="40" rx="10" fill="#EEF2F7"/>
  <text x="1080" y="122" fill="#334155" font-size="14" font-family="Helvetica, Arial, sans-serif">Week</text>
  <rect x="1200" y="96" width="150" height="40" rx="10" fill="#2563EB"/>
  <text x="1243" y="122" fill="#FFFFFF" font-size="14" font-family="Helvetica, Arial, sans-serif" font-weight="700">Month</text>
  <rect x="1360" y="96" width="140" height="40" rx="10" fill="#EEF2F7"/>
  <text x="1398" y="122" fill="#334155" font-size="14" font-family="Helvetica, Arial, sans-serif">Filter</text>

  <rect x="350" y="180" width="1140" height="820" rx="18" fill="#F8FAFC"/>

  <text x="390" y="230" fill="#0F172A" font-size="24" font-family="Helvetica, Arial, sans-serif" font-weight="700">Февраль 2026</text>
  <text x="1240" y="230" fill="#2563EB" font-size="14" font-family="Helvetica, Arial, sans-serif">+ Быстрое создание (N)</text>

  <text x="390" y="270" fill="#64748B" font-size="14" font-family="Helvetica, Arial, sans-serif">Mon</text>
  <text x="545" y="270" fill="#64748B" font-size="14" font-family="Helvetica, Arial, sans-serif">Tue</text>
  <text x="700" y="270" fill="#64748B" font-size="14" font-family="Helvetica, Arial, sans-serif">Wed</text>
  <text x="855" y="270" fill="#64748B" font-size="14" font-family="Helvetica, Arial, sans-serif">Thu</text>
  <text x="1010" y="270" fill="#64748B" font-size="14" font-family="Helvetica, Arial, sans-serif">Fri</text>
  <text x="1165" y="270" fill="#64748B" font-size="14" font-family="Helvetica, Arial, sans-serif">Sat</text>
  <text x="1320" y="270" fill="#64748B" font-size="14" font-family="Helvetica, Arial, sans-serif">Sun</text>

  <rect x="380" y="285" width="153" height="130" rx="10" fill="#FFFFFF"/>
  <text x="396" y="308" fill="#334155" font-size="14" font-family="Helvetica, Arial, sans-serif">2</text>
  <rect x="390" y="325" width="132" height="24" rx="8" fill="#DBEAFE"/>
  <text x="397" y="341" fill="#1D4ED8" font-size="11" font-family="Helvetica, Arial, sans-serif">PRJ-104 Daily sync prep</text>

  <rect x="535" y="285" width="153" height="130" rx="10" fill="#FFFFFF"/>
  <text x="551" y="308" fill="#334155" font-size="14" font-family="Helvetica, Arial, sans-serif">3</text>

  <rect x="690" y="285" width="153" height="130" rx="10" fill="#FFFFFF"/>
  <text x="706" y="308" fill="#334155" font-size="14" font-family="Helvetica, Arial, sans-serif">4</text>
  <rect x="700" y="325" width="132" height="24" rx="8" fill="#FEE2E2"/>
  <text x="707" y="341" fill="#991B1B" font-size="11" font-family="Helvetica, Arial, sans-serif">PRJ-120 Bug fix (High)</text>

  <rect x="845" y="285" width="153" height="130" rx="10" fill="#FFFFFF"/>
  <text x="861" y="308" fill="#334155" font-size="14" font-family="Helvetica, Arial, sans-serif">5</text>

  <rect x="1000" y="285" width="153" height="130" rx="10" fill="#FFFFFF"/>
  <text x="1016" y="308" fill="#334155" font-size="14" font-family="Helvetica, Arial, sans-serif">6</text>
  <rect x="1010" y="325" width="132" height="24" rx="8" fill="#DCFCE7"/>
  <text x="1017" y="341" fill="#166534" font-size="11" font-family="Helvetica, Arial, sans-serif">PRJ-121 QA review</text>

  <rect x="1155" y="285" width="153" height="130" rx="10" fill="#FFFFFF"/>
  <text x="1171" y="308" fill="#334155" font-size="14" font-family="Helvetica, Arial, sans-serif">7</text>

  <rect x="1310" y="285" width="153" height="130" rx="10" fill="#FFFFFF"/>
  <text x="1326" y="308" fill="#334155" font-size="14" font-family="Helvetica, Arial, sans-serif">8</text>

  <rect x="380" y="425" width="153" height="130" rx="10" fill="#FFFFFF"/>
  <text x="396" y="448" fill="#334155" font-size="14" font-family="Helvetica, Arial, sans-serif">9</text>

  <rect x="535" y="425" width="153" height="130" rx="10" fill="#FFFFFF"/>
  <text x="551" y="448" fill="#334155" font-size="14" font-family="Helvetica, Arial, sans-serif">10</text>
  <rect x="545" y="465" width="132" height="24" rx="8" fill="#FEF3C7"/>
  <text x="552" y="481" fill="#92400E" font-size="11" font-family="Helvetica, Arial, sans-serif">PRJ-132 UX workshop</text>

  <rect x="690" y="425" width="153" height="130" rx="10" fill="#FFFFFF"/>
  <text x="706" y="448" fill="#334155" font-size="14" font-family="Helvetica, Arial, sans-serif">11</text>

  <rect x="845" y="425" width="153" height="130" rx="10" fill="#FFFFFF"/>
  <text x="861" y="448" fill="#334155" font-size="14" font-family="Helvetica, Arial, sans-serif">12</text>

  <rect x="1000" y="425" width="153" height="130" rx="10" fill="#FFFFFF"/>
  <text x="1016" y="448" fill="#334155" font-size="14" font-family="Helvetica, Arial, sans-serif">13</text>

  <rect x="1155" y="425" width="153" height="130" rx="10" fill="#FFFFFF"/>
  <text x="1171" y="448" fill="#334155" font-size="14" font-family="Helvetica, Arial, sans-serif">14</text>

  <rect x="1310" y="425" width="153" height="130" rx="10" fill="#FFFFFF"/>
  <text x="1326" y="448" fill="#334155" font-size="14" font-family="Helvetica, Arial, sans-serif">15</text>

  <rect x="380" y="565" width="153" height="130" rx="10" fill="#FFFFFF"/>
  <text x="396" y="588" fill="#334155" font-size="14" font-family="Helvetica, Arial, sans-serif">16</text>
  <rect x="390" y="605" width="132" height="24" rx="8" fill="#E0EAFF"/>
  <text x="397" y="621" fill="#1E40AF" font-size="11" font-family="Helvetica, Arial, sans-serif">PRJ-140 Sprint planning</text>

  <rect x="535" y="565" width="153" height="130" rx="10" fill="#FFFFFF"/>
  <text x="551" y="588" fill="#334155" font-size="14" font-family="Helvetica, Arial, sans-serif">17</text>
  <rect x="545" y="605" width="132" height="24" rx="8" fill="#FEE2E2"/>
  <text x="552" y="621" fill="#991B1B" font-size="11" font-family="Helvetica, Arial, sans-serif">PRJ-145 Release freeze</text>

  <rect x="690" y="565" width="153" height="130" rx="10" fill="#FFFFFF"/>
  <text x="706" y="588" fill="#334155" font-size="14" font-family="Helvetica, Arial, sans-serif">18</text>

  <rect x="845" y="565" width="153" height="130" rx="10" fill="#FFFFFF"/>
  <text x="861" y="588" fill="#334155" font-size="14" font-family="Helvetica, Arial, sans-serif">19</text>

  <rect x="1000" y="565" width="153" height="130" rx="10" fill="#FFFFFF"/>
  <text x="1016" y="588" fill="#334155" font-size="14" font-family="Helvetica, Arial, sans-serif">20</text>

  <rect x="1155" y="565" width="153" height="130" rx="10" fill="#FFFFFF"/>
  <text x="1171" y="588" fill="#334155" font-size="14" font-family="Helvetica, Arial, sans-serif">21</text>

  <rect x="1310" y="565" width="153" height="130" rx="10" fill="#FFFFFF"/>
  <text x="1326" y="588" fill="#334155" font-size="14" font-family="Helvetica, Arial, sans-serif">22</text>

  <rect x="380" y="705" width="153" height="130" rx="10" fill="#FFFFFF"/>
  <text x="396" y="728" fill="#334155" font-size="14" font-family="Helvetica, Arial, sans-serif">23</text>

  <rect x="535" y="705" width="153" height="130" rx="10" fill="#FFFFFF"/>
  <text x="551" y="728" fill="#334155" font-size="14" font-family="Helvetica, Arial, sans-serif">24</text>

  <rect x="690" y="705" width="153" height="130" rx="10" fill="#FFFFFF"/>
  <text x="706" y="728" fill="#334155" font-size="14" font-family="Helvetica, Arial, sans-serif">25</text>

  <rect x="845" y="705" width="153" height="130" rx="10" fill="#FFFFFF"/>
  <text x="861" y="728" fill="#334155" font-size="14" font-family="Helvetica, Arial, sans-serif">26</text>

  <rect x="1000" y="705" width="153" height="130" rx="10" fill="#FFFFFF"/>
  <text x="1016" y="728" fill="#334155" font-size="14" font-family="Helvetica, Arial, sans-serif">27</text>

  <rect x="1155" y="705" width="153" height="130" rx="10" fill="#FFFFFF"/>
  <text x="1171" y="728" fill="#334155" font-size="14" font-family="Helvetica, Arial, sans-serif">28</text>

  <rect x="1310" y="705" width="153" height="130" rx="10" fill="#FFFFFF"/>
  <text x="1326" y="728" fill="#334155" font-size="14" font-family="Helvetica, Arial, sans-serif">1 Mar</text>

  <rect x="1180" y="875" width="310" height="95" rx="14" fill="#FFFFFF"/>
  <text x="1210" y="908" fill="#111827" font-size="14" font-family="Helvetica, Arial, sans-serif" font-weight="700">Drag &amp; drop task to change due date</text>
  <text x="1210" y="934" fill="#64748B" font-size="13" font-family="Helvetica, Arial, sans-serif">Событие попадет в audit trail</text>
</svg>
