<svg width="1600" height="1100" viewBox="0 0 1600 1100" fill="none" xmlns="http://www.w3.org/2000/svg">
  <defs>
    <linearGradient id="bg" x1="0" y1="0" x2="1600" y2="1100" gradientUnits="userSpaceOnUse">
      <stop stop-color="#F6F7FB"/>
      <stop offset="1" stop-color="#EEF2F7"/>
    </linearGradient>
    <filter id="shadow" x="-20" y="-20" width="2000" height="1400" filterUnits="userSpaceOnUse" color-interpolation-filters="sRGB">
      <feDropShadow dx="0" dy="12" stdDeviation="14" flood-opacity="0.12"/>
    </filter>
  </defs>

  <rect width="1600" height="1100" fill="url(#bg)"/>

  <rect x="70" y="70" width="1460" height="960" rx="24" fill="#FFFFFF" filter="url(#shadow)"/>

  <rect x="70" y="70" width="260" height="960" rx="24" fill="#101826"/>
  <text x="112" y="132" fill="#FFFFFF" font-size="28" font-family="Helvetica, Arial, sans-serif" font-weight="700">TaskFlow</text>
  <rect x="98" y="176" width="204" height="46" rx="12" fill="#1E293B"/>
  <text x="122" y="206" fill="#DCE6F5" font-size="16" font-family="Helvetica, Arial, sans-serif">Dashboard</text>

  <text x="122" y="262" fill="#8FA3BF" font-size="16" font-family="Helvetica, Arial, sans-serif">My Tasks</text>
  <text x="122" y="302" fill="#8FA3BF" font-size="16" font-family="Helvetica, Arial, sans-serif">Projects</text>
  <text x="122" y="342" fill="#8FA3BF" font-size="16" font-family="Helvetica, Arial, sans-serif">Calendar</text>
  <text x="122" y="382" fill="#8FA3BF" font-size="16" font-family="Helvetica, Arial, sans-serif">Reports</text>
  <text x="122" y="422" fill="#8FA3BF" font-size="16" font-family="Helvetica, Arial, sans-serif">Settings</text>

  <rect x="98" y="880" width="204" height="64" rx="12" fill="#1E293B"/>
  <circle cx="132" cy="912" r="18" fill="#2F80ED"/>
  <text x="160" y="908" fill="#DCE6F5" font-size="14" font-family="Helvetica, Arial, sans-serif">Maria Dev</text>
  <text x="160" y="926" fill="#8FA3BF" font-size="12" font-family="Helvetica, Arial, sans-serif">Product Designer</text>

  <rect x="330" y="70" width="1200" height="90" rx="24" fill="#FFFFFF"/>
  <text x="380" y="125" fill="#111827" font-size="28" font-family="Helvetica, Arial, sans-serif" font-weight="700">Task Manager</text>

  <rect x="920" y="96" width="280" height="40" rx="10" fill="#F3F5F9"/>
  <text x="944" y="122" fill="#94A3B8" font-size="14" font-family="Helvetica, Arial, sans-serif">Search tasks, tags, assignees...</text>

  <rect x="1220" y="96" width="130" height="40" rx="10" fill="#2563EB"/>
  <text x="1251" y="122" fill="#FFFFFF" font-size="14" font-family="Helvetica, Arial, sans-serif" font-weight="700">+ New Task</text>

  <rect x="1370" y="96" width="120" height="40" rx="10" fill="#EEF2F7"/>
  <text x="1407" y="122" fill="#334155" font-size="14" font-family="Helvetica, Arial, sans-serif" font-weight="700">Filter</text>

  <text x="380" y="218" fill="#334155" font-size="16" font-family="Helvetica, Arial, sans-serif">Sprint 14: Product Launch</text>
  <rect x="610" y="190" width="180" height="36" rx="18" fill="#E0EAFF"/>
  <text x="639" y="213" fill="#1E40AF" font-size="14" font-family="Helvetica, Arial, sans-serif">12 tasks in progress</text>

  <rect x="360" y="250" width="350" height="740" rx="18" fill="#F8FAFC"/>
  <rect x="740" y="250" width="350" height="740" rx="18" fill="#F8FAFC"/>
  <rect x="1120" y="250" width="350" height="740" rx="18" fill="#F8FAFC"/>

  <text x="390" y="295" fill="#0F172A" font-size="18" font-family="Helvetica, Arial, sans-serif" font-weight="700">To Do (5)</text>
  <text x="770" y="295" fill="#0F172A" font-size="18" font-family="Helvetica, Arial, sans-serif" font-weight="700">In Progress (3)</text>
  <text x="1150" y="295" fill="#0F172A" font-size="18" font-family="Helvetica, Arial, sans-serif" font-weight="700">Done (8)</text>

  <rect x="382" y="322" width="306" height="154" rx="14" fill="#FFFFFF"/>
  <text x="404" y="356" fill="#111827" font-size="16" font-family="Helvetica, Arial, sans-serif" font-weight="700">Design onboarding flow</text>
  <text x="404" y="382" fill="#64748B" font-size="13" font-family="Helvetica, Arial, sans-serif">Create first-run UX for new users</text>
  <rect x="404" y="398" width="92" height="26" rx="8" fill="#FEF3C7"/>
  <text x="426" y="416" fill="#92400E" font-size="12" font-family="Helvetica, Arial, sans-serif">Medium</text>
  <circle cx="404" cy="446" r="12" fill="#2F80ED"/>
  <circle cx="430" cy="446" r="12" fill="#10B981"/>

  <rect x="382" y="492" width="306" height="154" rx="14" fill="#FFFFFF"/>
  <text x="404" y="526" fill="#111827" font-size="16" font-family="Helvetica, Arial, sans-serif" font-weight="700">Prepare demo script</text>
  <text x="404" y="552" fill="#64748B" font-size="13" font-family="Helvetica, Arial, sans-serif">Storyline for investor walkthrough</text>
  <rect x="404" y="568" width="74" height="26" rx="8" fill="#FEE2E2"/>
  <text x="426" y="586" fill="#991B1B" font-size="12" font-family="Helvetica, Arial, sans-serif">High</text>

  <rect x="762" y="322" width="306" height="154" rx="14" fill="#FFFFFF"/>
  <text x="784" y="356" fill="#111827" font-size="16" font-family="Helvetica, Arial, sans-serif" font-weight="700">Build analytics page</text>
  <text x="784" y="382" fill="#64748B" font-size="13" font-family="Helvetica, Arial, sans-serif">Integrate charts and data API</text>
  <rect x="784" y="398" width="74" height="26" rx="8" fill="#DBEAFE"/>
  <text x="807" y="416" fill="#1D4ED8" font-size="12" font-family="Helvetica, Arial, sans-serif">Blocker</text>
  <rect x="784" y="432" width="190" height="8" rx="4" fill="#E2E8F0"/>
  <rect x="784" y="432" width="122" height="8" rx="4" fill="#2563EB"/>

  <rect x="762" y="492" width="306" height="154" rx="14" fill="#FFFFFF"/>
  <text x="784" y="526" fill="#111827" font-size="16" font-family="Helvetica, Arial, sans-serif" font-weight="700">Implement notifications</text>
  <text x="784" y="552" fill="#64748B" font-size="13" font-family="Helvetica, Arial, sans-serif">Email and in-app reminders</text>
  <rect x="784" y="568" width="72" height="26" rx="8" fill="#DCFCE7"/>
  <text x="808" y="586" fill="#166534" font-size="12" font-family="Helvetica, Arial, sans-serif">Low</text>

  <rect x="1142" y="322" width="306" height="154" rx="14" fill="#FFFFFF"/>
  <text x="1164" y="356" fill="#111827" font-size="16" font-family="Helvetica, Arial, sans-serif" font-weight="700">User interview notes</text>
  <text x="1164" y="382" fill="#64748B" font-size="13" font-family="Helvetica, Arial, sans-serif">Synthesized key pain points</text>
  <rect x="1164" y="398" width="92" height="26" rx="8" fill="#DCFCE7"/>
  <text x="1192" y="416" fill="#166534" font-size="12" font-family="Helvetica, Arial, sans-serif">Complete</text>

  <rect x="1142" y="492" width="306" height="154" rx="14" fill="#FFFFFF"/>
  <text x="1164" y="526" fill="#111827" font-size="16" font-family="Helvetica, Arial, sans-serif" font-weight="700">Landing page copy</text>
  <text x="1164" y="552" fill="#64748B" font-size="13" font-family="Helvetica, Arial, sans-serif">Approved by marketing team</text>
  <rect x="1164" y="568" width="92" height="26" rx="8" fill="#DCFCE7"/>
  <text x="1192" y="586" fill="#166534" font-size="12" font-family="Helvetica, Arial, sans-serif">Complete</text>
</svg>
