<svg width="1600" height="1100" viewBox="0 0 1600 1100" fill="none" xmlns="http://www.w3.org/2000/svg">
  <defs>
    <linearGradient id="bg" x1="0" y1="0" x2="1600" y2="1100" gradientUnits="userSpaceOnUse">
      <stop stop-color="#F5F8FC"/>
      <stop offset="1" stop-color="#EDF2F8"/>
    </linearGradient>
  </defs>

  <rect width="1600" height="1100" fill="url(#bg)"/>
  <rect x="70" y="70" width="1460" height="960" rx="24" fill="#FFFFFF"/>

  <rect x="70" y="70" width="250" height="960" rx="24" fill="#101826"/>
  <text x="110" y="130" fill="#FFFFFF" font-size="28" font-family="Helvetica, Arial, sans-serif" font-weight="700">TaskFlow</text>
  <text x="110" y="188" fill="#8FA3BF" font-size="16" font-family="Helvetica, Arial, sans-serif">Dashboard</text>
  <text x="110" y="226" fill="#8FA3BF" font-size="16" font-family="Helvetica, Arial, sans-serif">Board</text>
  <rect x="96" y="244" width="196" height="46" rx="12" fill="#1E293B"/>
  <text x="120" y="274" fill="#DCE6F5" font-size="16" font-family="Helvetica, Arial, sans-serif">Task Details</text>
  <text x="110" y="326" fill="#8FA3BF" font-size="16" font-family="Helvetica, Arial, sans-serif">Calendar</text>

  <rect x="320" y="70" width="1210" height="90" rx="24" fill="#FFFFFF"/>
  <text x="370" y="125" fill="#0F172A" font-size="28" font-family="Helvetica, Arial, sans-serif" font-weight="700">PRJ-145 Release freeze checklist</text>

  <rect x="1180" y="96" width="120" height="40" rx="10" fill="#FEF3C7"/>
  <text x="1218" y="122" fill="#92400E" font-size="14" font-family="Helvetica, Arial, sans-serif" font-weight="700">High</text>
  <rect x="1310" y="96" width="90" height="40" rx="10" fill="#DBEAFE"/>
  <text x="1334" y="122" fill="#1D4ED8" font-size="14" font-family="Helvetica, Arial, sans-serif" font-weight="700">Bug</text>
  <rect x="1410" y="96" width="90" height="40" rx="10" fill="#DCFCE7"/>
  <text x="1434" y="122" fill="#166534" font-size="14" font-family="Helvetica, Arial, sans-serif" font-weight="700">Open</text>

  <rect x="350" y="190" width="760" height="810" rx="18" fill="#F8FAFC"/>
  <text x="390" y="240" fill="#0F172A" font-size="20" font-family="Helvetica, Arial, sans-serif" font-weight="700">Описание</text>
  <text x="390" y="278" fill="#334155" font-size="15" font-family="Helvetica, Arial, sans-serif">Подготовить релизный freeze для Sprint 14:</text>
  <text x="390" y="306" fill="#334155" font-size="15" font-family="Helvetica, Arial, sans-serif">• Проверить блокирующие баги (Critical/High)</text>
  <text x="390" y="334" fill="#334155" font-size="15" font-family="Helvetica, Arial, sans-serif">• Закрыть checklist перед переходом в Done</text>
  <text x="390" y="362" fill="#334155" font-size="15" font-family="Helvetica, Arial, sans-serif">• Оставить audit trail и release notes</text>

  <text x="390" y="422" fill="#0F172A" font-size="20" font-family="Helvetica, Arial, sans-serif" font-weight="700">Checklist</text>
  <rect x="390" y="445" width="18" height="18" rx="5" fill="#FFFFFF"/>
  <text x="418" y="460" fill="#334155" font-size="14" font-family="Helvetica, Arial, sans-serif">Все тесты smoke/regression запущены</text>
  <rect x="390" y="476" width="18" height="18" rx="5" fill="#FFFFFF"/>
  <text x="418" y="491" fill="#334155" font-size="14" font-family="Helvetica, Arial, sans-serif">Нет открытых Critical багов</text>
  <rect x="390" y="507" width="18" height="18" rx="5" fill="#E2E8F0"/>
  <text x="418" y="522" fill="#334155" font-size="14" font-family="Helvetica, Arial, sans-serif">Подписан go-live администратором проекта</text>

  <text x="390" y="582" fill="#0F172A" font-size="20" font-family="Helvetica, Arial, sans-serif" font-weight="700">Комментарии</text>
  <rect x="390" y="606" width="680" height="80" rx="12" fill="#FFFFFF"/>
  <text x="412" y="636" fill="#111827" font-size="14" font-family="Helvetica, Arial, sans-serif" font-weight="700">@qa-team</text>
  <text x="492" y="636" fill="#475569" font-size="14" font-family="Helvetica, Arial, sans-serif">Проверили регрессию, остаётся PRJ-152.</text>
  <text x="412" y="662" fill="#94A3B8" font-size="12" font-family="Helvetica, Arial, sans-serif">10:24 · today</text>

  <rect x="390" y="698" width="680" height="80" rx="12" fill="#FFFFFF"/>
  <text x="412" y="728" fill="#111827" font-size="14" font-family="Helvetica, Arial, sans-serif" font-weight="700">@pm</text>
  <text x="452" y="728" fill="#475569" font-size="14" font-family="Helvetica, Arial, sans-serif">Добавил дедлайн на 28 Feb и watcher для клиента.</text>
  <text x="412" y="754" fill="#94A3B8" font-size="12" font-family="Helvetica, Arial, sans-serif">11:02 · today</text>

  <rect x="390" y="796" width="540" height="52" rx="12" fill="#FFFFFF"/>
  <text x="412" y="829" fill="#94A3B8" font-size="14" font-family="Helvetica, Arial, sans-serif">Добавить комментарий (Markdown поддерживается)</text>
  <rect x="940" y="796" width="130" height="52" rx="12" fill="#2563EB"/>
  <text x="977" y="829" fill="#FFFFFF" font-size="14" font-family="Helvetica, Arial, sans-serif" font-weight="700">Отправить</text>

  <rect x="1130" y="190" width="370" height="810" rx="18" fill="#F8FAFC"/>
  <text x="1160" y="240" fill="#0F172A" font-size="18" font-family="Helvetica, Arial, sans-serif" font-weight="700">Поля задачи</text>

  <text x="1160" y="282" fill="#64748B" font-size="13" font-family="Helvetica, Arial, sans-serif">Статус</text>
  <rect x="1160" y="292" width="310" height="42" rx="10" fill="#FFFFFF"/>
  <text x="1182" y="319" fill="#334155" font-size="14" font-family="Helvetica, Arial, sans-serif">In Progress</text>

  <text x="1160" y="364" fill="#64748B" font-size="13" font-family="Helvetica, Arial, sans-serif">Исполнитель</text>
  <rect x="1160" y="374" width="310" height="42" rx="10" fill="#FFFFFF"/>
  <text x="1182" y="401" fill="#334155" font-size="14" font-family="Helvetica, Arial, sans-serif">Maria Dev</text>

  <text x="1160" y="446" fill="#64748B" font-size="13" font-family="Helvetica, Arial, sans-serif">Дедлайн</text>
  <rect x="1160" y="456" width="310" height="42" rx="10" fill="#FFFFFF"/>
  <text x="1182" y="483" fill="#334155" font-size="14" font-family="Helvetica, Arial, sans-serif">2026-02-28</text>

  <text x="1160" y="528" fill="#64748B" font-size="13" font-family="Helvetica, Arial, sans-serif">Watchers</text>
  <rect x="1160" y="538" width="310" height="62" rx="10" fill="#FFFFFF"/>
  <text x="1182" y="565" fill="#334155" font-size="14" font-family="Helvetica, Arial, sans-serif">qa-team, product-owner, client-guest</text>

  <text x="1160" y="640" fill="#0F172A" font-size="18" font-family="Helvetica, Arial, sans-serif" font-weight="700">Вложения</text>
  <rect x="1160" y="662" width="310" height="56" rx="10" fill="#FFFFFF"/>
  <text x="1182" y="695" fill="#334155" font-size="14" font-family="Helvetica, Arial, sans-serif">release-checklist-v3.pdf</text>

  <text x="1160" y="760" fill="#0F172A" font-size="18" font-family="Helvetica, Arial, sans-serif" font-weight="700">История изменений</text>
  <rect x="1160" y="782" width="310" height="176" rx="10" fill="#FFFFFF"/>
  <text x="1182" y="812" fill="#334155" font-size="13" font-family="Helvetica, Arial, sans-serif">11:02 PM changed due date</text>
  <text x="1182" y="838" fill="#334155" font-size="13" font-family="Helvetica, Arial, sans-serif">10:58 QA added comment</text>
  <text x="1182" y="864" fill="#334155" font-size="13" font-family="Helvetica, Arial, sans-serif">10:17 Status To Do → In Progress</text>
  <text x="1182" y="890" fill="#334155" font-size="13" font-family="Helvetica, Arial, sans-serif">09:43 Task created by PM</text>
</svg>
