<svg width="1600" height="1100" viewBox="0 0 1600 1100" fill="none" xmlns="http://www.w3.org/2000/svg">
  <rect width="1600" height="1100" fill="#EEF3FA"/>
  <rect x="70" y="70" width="1460" height="960" rx="24" fill="#FFFFFF"/>
  <rect x="70" y="70" width="250" height="960" rx="24" fill="#101826"/>
  <text x="110" y="132" fill="#FFFFFF" font-size="28" font-family="Helvetica, Arial, sans-serif" font-weight="700">TaskFlow</text>
  <rect x="96" y="178" width="196" height="46" rx="12" fill="#1E293B"/>
  <text x="122" y="208" fill="#DDE7F6" font-size="16" font-family="Helvetica, Arial, sans-serif">Проекты</text>
  <text x="350" y="132" fill="#0F172A" font-size="36" font-family="Helvetica, Arial, sans-serif" font-weight="700">Проекты</text>
  <text x="350" y="168" fill="#64748B" font-size="16" font-family="Helvetica, Arial, sans-serif">Нажмите "Открыть", чтобы увидеть задачи выбранного проекта</text>
  <rect x="350" y="210" width="1140" height="740" rx="14" fill="#F8FAFD"/>
  <rect x="380" y="250" width="1080" height="60" rx="10" fill="#E9EFF9"/>
  <text x="400" y="288" fill="#334155" font-size="16" font-family="Helvetica, Arial, sans-serif">Ключ | Название | Куратор | Участники | Действие</text>
  <rect x="380" y="330" width="1080" height="74" rx="10" fill="#FFFFFF"/>
  <text x="400" y="376" fill="#0F172A" font-size="15" font-family="Helvetica, Arial, sans-serif">PRJ | Система уведомлений | Екатерина Петрова | 12</text>
  <rect x="1260" y="346" width="180" height="42" rx="10" fill="#2563EB"/>
  <text x="1310" y="373" fill="#FFFFFF" font-size="14" font-family="Helvetica, Arial, sans-serif" font-weight="700">Открыть</text>
  <rect x="380" y="420" width="1080" height="74" rx="10" fill="#FFFFFF"/>
  <text x="400" y="466" fill="#0F172A" font-size="15" font-family="Helvetica, Arial, sans-serif">OPS | Инфраструктура | Андрей Громов | 8</text>
  <rect x="1260" y="436" width="180" height="42" rx="10" fill="#2563EB"/>
  <text x="1310" y="463" fill="#FFFFFF" font-size="14" font-family="Helvetica, Arial, sans-serif" font-weight="700">Открыть</text>
</svg>
