<svg width="1600" height="1100" viewBox="0 0 1600 1100" fill="none" xmlns="http://www.w3.org/2000/svg">
  <defs>
    <linearGradient id="bg" x1="0" y1="0" x2="1600" y2="1100" gradientUnits="userSpaceOnUse">
      <stop stop-color="#071126"/>
      <stop offset="1" stop-color="#112447"/>
    </linearGradient>
  </defs>
  <rect width="1600" height="1100" fill="url(#bg)"/>
  <rect x="70" y="70" width="1460" height="960" rx="30" fill="#0A1325" stroke="#375B97"/>
  <rect x="100" y="100" width="700" height="900" rx="20" fill="#0E1B32"/>
  <text x="870" y="210" fill="#ECF3FF" font-size="42" font-family="Helvetica, Arial, sans-serif" font-weight="700">РЕГИСТРАЦИЯ СОТРУДНИКА</text>
  <text x="870" y="250" fill="#9DB1D4" font-size="20" font-family="Helvetica, Arial, sans-serif">Пользователь попадет в список пользователей и в dropdown списки</text>
  <rect x="860" y="290" width="640" height="72" rx="36" fill="#0B162A" stroke="#4F73AA"/>
  <text x="900" y="336" fill="#93A9CB" font-size="28" font-family="Helvetica, Arial, sans-serif">Логин</text>
  <rect x="860" y="382" width="640" height="72" rx="36" fill="#0B162A" stroke="#4F73AA"/>
  <text x="900" y="428" fill="#93A9CB" font-size="28" font-family="Helvetica, Arial, sans-serif">Пароль</text>
  <rect x="860" y="474" width="640" height="72" rx="36" fill="#0B162A" stroke="#4F73AA"/>
  <text x="900" y="520" fill="#93A9CB" font-size="28" font-family="Helvetica, Arial, sans-serif">Повторите пароль</text>
  <rect x="860" y="566" width="640" height="72" rx="36" fill="#0B162A" stroke="#4F73AA"/>
  <text x="900" y="612" fill="#93A9CB" font-size="28" font-family="Helvetica, Arial, sans-serif">ФИО</text>
  <rect x="860" y="658" width="640" height="72" rx="36" fill="#0B162A" stroke="#4F73AA"/>
  <text x="900" y="704" fill="#93A9CB" font-size="28" font-family="Helvetica, Arial, sans-serif">Должность</text>
  <rect x="860" y="780" width="300" height="86" rx="43" fill="#2D4F8C" stroke="#5E84C9"/>
  <text x="940" y="835" fill="#FFFFFF" font-size="40" font-family="Helvetica, Arial, sans-serif" font-weight="700">Создать</text>
  <rect x="1200" y="780" width="300" height="86" rx="43" fill="#121F38" stroke="#5E84C9"/>
  <text x="1310" y="835" fill="#EAF1FF" font-size="40" font-family="Helvetica, Arial, sans-serif" font-weight="700">Назад</text>
</svg>
