<svg width="1600" height="1100" viewBox="0 0 1600 1100" fill="none" xmlns="http://www.w3.org/2000/svg">
  <rect width="1600" height="1100" fill="#EEF3FA"/>
  <rect x="70" y="70" width="1460" height="960" rx="24" fill="#FFFFFF"/>
  <rect x="70" y="70" width="250" height="960" rx="24" fill="#101826"/>
  <text x="110" y="132" fill="#FFFFFF" font-size="28" font-family="Helvetica, Arial, sans-serif" font-weight="700">TaskFlow</text>
  <rect x="96" y="338" width="196" height="46" rx="12" fill="#1E293B"/>
  <text x="122" y="368" fill="#DDE7F6" font-size="16" font-family="Helvetica, Arial, sans-serif">Настройки</text>
  <text x="350" y="132" fill="#0F172A" font-size="36" font-family="Helvetica, Arial, sans-serif" font-weight="700">Настройки Workspace</text>
  <rect x="350" y="190" width="560" height="350" rx="14" fill="#F8FAFD"/>
  <text x="380" y="230" fill="#0F172A" font-size="20" font-family="Helvetica, Arial, sans-serif" font-weight="700">Общие</text>
  <text x="380" y="270" fill="#334155" font-size="14" font-family="Helvetica, Arial, sans-serif">Язык, часовой пояс, формат даты, название workspace</text>
  <rect x="930" y="190" width="560" height="350" rx="14" fill="#F8FAFD"/>
  <text x="960" y="230" fill="#0F172A" font-size="20" font-family="Helvetica, Arial, sans-serif" font-weight="700">Безопасность</text>
  <text x="960" y="270" fill="#334155" font-size="14" font-family="Helvetica, Arial, sans-serif">2FA, политика пароля, лимит попыток, сессия</text>
  <rect x="350" y="560" width="560" height="350" rx="14" fill="#F8FAFD"/>
  <text x="380" y="600" fill="#0F172A" font-size="20" font-family="Helvetica, Arial, sans-serif" font-weight="700">Уведомления</text>
  <text x="380" y="640" fill="#334155" font-size="14" font-family="Helvetica, Arial, sans-serif">Email, in-app, дайджест, просрочки</text>
  <rect x="930" y="560" width="560" height="350" rx="14" fill="#F8FAFD"/>
  <text x="960" y="600" fill="#0F172A" font-size="20" font-family="Helvetica, Arial, sans-serif" font-weight="700">Интеграции</text>
  <text x="960" y="640" fill="#334155" font-size="14" font-family="Helvetica, Arial, sans-serif">Webhook, API token, Local/S3, Slack/Telegram</text>
</svg>
